<svg class="icon"
    style="width: 1em;height: 1em;vertical-align: middle;fill: currentColor;overflow: hidden;"
    viewBox="0 0 1024 1024" version="1.1" xmlns="http://www.w3.org/2000/svg" p-id="8915">
    <path
        d="M1019.26404 621.056L891.77604 397.824l54.784-104.448c7.68-9.728 9.728-24.576 6.656-36.352L883.07204 130.56c-5.632-8.192-14.848-13.312-24.576-13.824H597.88804l-58.88-102.4C534.91204 6.144 527.23204 1.024 518.01604 0H380.28804c-10.24 0-17.408 7.68-22.528 16.384l-2.048 3.584L225.66404 243.2H100.73604c-10.24 0-19.968 5.12-25.6 13.824L3.45604 384a32.533 32.533 0 0 0 0 29.184l129.536 224.768L74.62404 739.84a32.533 32.533 0 0 0 0 29.184l66.56 116.736c5.632 8.704 14.848 14.336 25.6 14.336h260.608l62.976 109.056c4.608 8.192 13.312 13.824 22.528 14.848h147.456c10.24 0 19.456-5.632 24.576-14.336L813.44004 784.896h114.688c10.24-1.024 19.456-6.656 24.576-15.36l66.56-117.248c6.144-10.24 6.144-22.016 0-31.232z m-161.28 14.336l-66.56-122.88-273.408 481.28-74.752-122.88H170.36804l65.536-118.784h139.264L101.76004 272.384h142.848l135.68-242.176 68.096 119.296-70.144 122.88h546.816L856.44804 394.24l137.728 241.152H857.98404z"
        fill="#605BEC" p-id="8916"></path>
    <path d="M511.87204 681.472l170.496-272.896H340.35204l171.52 272.896z" fill="#605BEC"
        p-id="8917"></path>
</svg>