<svg class="icon"
    style="width: 1em;height: 1em;vertical-align: middle;fill: currentColor;overflow: hidden;"
    viewBox="0 0 1024 1024" version="1.1" xmlns="http://www.w3.org/2000/svg" p-id="14027">
    <path d="M660.36 396.732a80.612 80.612 0 0 1-137.604 57 80.608 80.608 0 1 1 137.6-57z"
        fill="#FFCA28" p-id="14028"></path>
    <path
        d="M444.16 546.96c-44.52 0-80.608 36.088-80.608 80.604 0 44.52 36.088 80.608 80.608 80.608 44.516 0 80.608-36.088 80.608-80.608 0-44.516-36.092-80.6-80.608-80.6z"
        fill="#26C6DA" p-id="14029"></path>
    <path
        d="M746.8 655.04a307.808 307.808 0 0 1-106.256 43.24 216.168 216.168 0 0 0 10.628-97.464 216.2 216.2 0 0 0 135.424-140.984 216.16 216.16 0 0 0-110.92-256.84 216.176 216.176 0 0 0-271.452 67.708 359.064 359.064 0 0 0-117.98 34.44 307.756 307.756 0 0 1 345.96-212.232 307.76 307.76 0 0 1 255.552 315.316 307.744 307.744 0 0 1-140.96 246.824zM289.92 361.192l75.476 9.16a216.2 216.2 0 0 1 9.524-42.868 307.812 307.812 0 0 0-85 33.708z"
        fill="#FFCA28" p-id="14030"></path>
    <path
        d="M276.728 369.256a307.748 307.748 0 0 1 106.988-43.6 215.804 215.804 0 0 0-12.092 97.828 216.2 216.2 0 0 0-134.56 141.432 216.16 216.16 0 0 0 209.416 278.4 216.176 216.176 0 0 0 173.192-90.08 358.988 358.988 0 0 0 117.98-34.072 307.744 307.744 0 0 1-200.008 201.692 307.752 307.752 0 0 1-279.968-47.968A307.776 307.776 0 0 1 276.72 369.26z m456.88 293.848l-1.464 0.732z"
        fill="#26C6DA" p-id="14031"></path>
</svg>