<svg fill="none" viewBox="0 0 44 44" xmlns="http://www.w3.org/2000/svg" id="typescript">
    <path
        d="m35.6797 5h-27.35939c-1.83376 0-3.32031 1.48655-3.32031 3.32031v27.35939c0 1.8337 1.48655 3.3203 3.32031 3.3203h27.35939c1.8337 0 3.3203-1.4866 3.3203-3.3203v-27.35939c0-1.83376-1.4866-3.32031-3.3203-3.32031z"
        fill="#3178c6"></path>
    <path
        d="m35.6797 5h-27.35939c-1.83376 0-3.32031 1.48655-3.32031 3.32031v27.35939c0 1.8337 1.48655 3.3203 3.32031 3.3203h27.35939c1.8337 0 3.3203-1.4866 3.3203-3.3203v-27.35939c0-1.83376-1.4866-3.32031-3.3203-3.32031z"
        fill="#3178c6"></path>
    <path clip-rule="evenodd"
        d="m26.0467 32.0555v3.3244c.5404.277 1.1796.4847 1.9175.6233.7379.1385 1.5156.2077 2.3332.2077.7968 0 1.5537-.0761 2.2708-.2285s1.3459-.4035 1.8864-.7532c.5404-.3497.9682-.8068 1.2835-1.3713.3152-.5645.4728-1.2622.4728-2.0933 0-.6025-.09-1.1306-.2702-1.5842-.1801-.4536-.4399-.8571-.7794-1.2103s-.7466-.6701-1.2212-.9506-1.0098-.5454-1.6057-.7947c-.4365-.1801-.8279-.3549-1.1744-.5246-.3464-.1697-.6409-.3428-.8834-.5194s-.4296-.3636-.5612-.561-.1975-.4207-.1975-.6701c0-.2285.0589-.4346.1767-.6181.1178-.1836.2841-.3411.4989-.4727.2148-.1315.478-.2337.7898-.3065.3118-.0727.6582-.109 1.0393-.109.2771 0 .5699.0208.8782.0623.3083.0416.6184.1056.9302.1922s.6149.1957.9094.3272c.2944.1316.5664.284.8158.4572v-3.1063c-.5058-.1939-1.0583-.3376-1.6577-.4311-.5993-.0935-1.287-.1402-2.0629-.1402-.7899 0-1.5382.0849-2.2449.2545-.7067.1697-1.3285.4346-1.8656.7947-.5369.3602-.9612.819-1.273 1.3765s-.4677 1.2241-.4677 1.9998c0 .9904.2858 1.8353.8574 2.5349.5716.6994 1.4394 1.2916 2.6034 1.7764.4573.187.8834.3705 1.2783.5506s.7362.3671 1.0237.561.5144.4051.6808.6337c.1663.2285.2494.4882.2494.7791 0 .2147-.052.4138-.1559.5973-.104.1836-.2616.3428-.4729.4779s-.4746.2407-.7898.3168c-.3153.0763-.6842.1143-1.1069.1143-.7206 0-1.4342-.1264-2.1409-.3792-.7067-.2527-1.3615-.6319-1.9643-1.1375zm-5.5887-8.1907h4.2647v-2.7281h-11.8868v2.7281h4.2438v12.1469h3.3783z"
        fill="#fff" fill-rule="evenodd"></path>
</svg>